<svg version="1.2" xmlns="http://www.w3.org/2000/svg" xmlns:xlink="http://www.w3.org/1999/xlink" overflow="visible" preserveAspectRatio="none" viewBox="0 0 24 24" width="46" height="42"><g><path xmlns:default="http://www.w3.org/2000/svg" id="calendar-minus-o" d="M15.24,14.1C15.18,14.03,15.09,14,15,14.01H9C8.82,14,8.68,14.14,8.67,14.31c0,0.01,0,0.01,0,0.02  v0.67c-0.01,0.18,0.13,0.32,0.31,0.33c0.01,0,0.01,0,0.02,0h6c0.18,0.01,0.32-0.13,0.33-0.31c0-0.01,0-0.01,0-0.02v-0.67  C15.33,14.25,15.3,14.16,15.24,14.1z M4.67,9.34h14.66v10.67H4.67V9.34z M8.57,7.57C8.51,7.64,8.42,7.67,8.33,7.66H7.67  C7.49,7.67,7.35,7.53,7.34,7.36c0-0.01,0-0.01,0-0.02v-3C7.33,4.16,7.47,4.01,7.65,4.01c0.01,0,0.01,0,0.02,0h0.67  C8.52,4,8.66,4.14,8.67,4.31c0,0.01,0,0.01,0,0.02v3c0.01,0.09-0.03,0.19-0.1,0.25V7.57z M16.57,7.57  c-0.06,0.06-0.15,0.09-0.24,0.09h-0.67c-0.18,0.01-0.32-0.13-0.33-0.31c0-0.01,0-0.01,0-0.02v-3c-0.01-0.18,0.13-0.32,0.31-0.33  c0.01,0,0.01,0,0.02,0h0.67c0.18-0.01,0.32,0.13,0.33,0.31c0,0.01,0,0.01,0,0.02v3c0.01,0.09-0.03,0.18-0.09,0.25V7.57z M20.66,6.66  c-0.01-0.73-0.6-1.32-1.33-1.33H18v-1c0-0.92-0.75-1.67-1.67-1.67l0,0h-0.67C14.74,2.67,13.99,3.42,14,4.34c0,0,0,0,0,0v1h-4v-1  c0-0.92-0.74-1.66-1.66-1.67H7.67C6.75,2.68,6,3.42,6,4.35l0,0v1H4.67c-0.73,0.01-1.32,0.6-1.33,1.33v13.33  c0.01,0.73,0.6,1.32,1.33,1.33h14.66c0.73-0.01,1.32-0.6,1.33-1.33V6.68l0,0V6.66z" style="fill: rgb(18, 18, 18);" vector-effect="non-scaling-stroke"/></g></svg>