<svg version="1.2" xmlns="http://www.w3.org/2000/svg" xmlns:xlink="http://www.w3.org/1999/xlink" overflow="visible" preserveAspectRatio="none" viewBox="0 0 24 24" width="41" height="38"><g><path xmlns:default="http://www.w3.org/2000/svg" id="arrow-left" d="M19.66,11.3c0.01-0.34-0.11-0.68-0.34-0.94c-0.22-0.26-0.54-0.4-0.88-0.39h-7.32l3.05-3  c0.52-0.52,0.53-1.36,0.01-1.88c0,0-0.01-0.01-0.01-0.01l-0.78-0.77c-0.51-0.52-1.35-0.53-1.87-0.01c0,0-0.01,0.01-0.01,0.01  l-6.79,6.71c-0.25,0.25-0.39,0.59-0.39,0.95c-0.01,0.35,0.14,0.69,0.39,0.94l6.78,6.79c0.25,0.25,0.59,0.39,0.95,0.39  c0.35,0.01,0.69-0.14,0.94-0.39l0.78-0.79c0.52-0.51,0.52-1.34,0.02-1.85c-0.01-0.01-0.01-0.01-0.02-0.02l-3.05-3.07h7.33  c0.34,0.01,0.66-0.13,0.88-0.39c0.23-0.26,0.35-0.6,0.34-0.94V11.3l0,0H19.66z" style="fill: rgb(18, 18, 18);" vector-effect="non-scaling-stroke"/></g></svg>