<svg version="1.2" xmlns="http://www.w3.org/2000/svg" xmlns:xlink="http://www.w3.org/1999/xlink" overflow="visible" preserveAspectRatio="none" viewBox="0 0 24 24" width="46" height="42"><g><path xmlns:default="http://www.w3.org/2000/svg" id="sort-numeric-asc" d="M18.11,16.34c0,0.28-0.13,0.55-0.36,0.71c-0.25,0.19-0.56,0.29-0.88,0.28  c-0.4,0.03-0.8-0.12-1.09-0.4c-0.26-0.27-0.39-0.63-0.38-1c-0.02-0.36,0.09-0.72,0.32-1c0.21-0.26,0.53-0.4,0.86-0.39  c0.42,0.01,0.82,0.21,1.07,0.55c0.29,0.33,0.46,0.76,0.46,1.21l0,0L18.11,16.34z M11.76,17.66c0.01-0.18-0.13-0.32-0.31-0.33  c-0.01,0-0.01,0-0.02,0h-2V3C9.44,2.83,9.3,2.68,9.12,2.67c-0.01,0-0.02,0-0.03,0h-2C6.91,2.67,6.77,2.81,6.76,2.98  c0,0.01,0,0.01,0,0.02v14.33h-2c-0.14-0.01-0.27,0.08-0.31,0.21c-0.05,0.12-0.03,0.27,0.07,0.36l3.33,3.33  c0.07,0.06,0.15,0.09,0.24,0.09c0.09,0,0.17-0.03,0.24-0.09l3.32-3.32c0.06-0.07,0.1-0.16,0.1-0.25l0,0H11.76z M19.57,16.94  c0.05-0.95-0.25-1.89-0.85-2.63c-0.52-0.64-1.3-1.01-2.13-1c-1.45,0-2.63,1.17-2.63,2.63c0,0.66,0.25,1.3,0.69,1.78  c0.47,0.49,1.12,0.76,1.8,0.74c0.3,0,0.6-0.05,0.88-0.15c0.24-0.05,0.47-0.15,0.66-0.31l0,0c-0.09,0.56-0.33,1.08-0.69,1.51  c-0.35,0.41-0.86,0.63-1.4,0.61c-0.27,0-0.53-0.05-0.78-0.14c-0.11-0.03-0.22-0.06-0.32-0.11L14.38,21l0.44,0.16  c0.8,0.25,1.67,0.22,2.45-0.09c0.38-0.16,0.72-0.39,1-0.68c0.29-0.3,0.52-0.63,0.71-1c0.19-0.38,0.34-0.78,0.43-1.19  c0.09-0.42,0.14-0.84,0.14-1.27l0,0L19.57,16.94z M19.25,9.48h-1.72V2.67h-1.28l-2,1.93l0.85,0.9l0.65-0.6  c0.09-0.1,0.17-0.21,0.24-0.33l0.07-0.12l0,0v0.16c0,0,0,0.09,0,0.18s0,0.15,0,0.2v4.5h-1.69v1.19h4.88V9.48L19.25,9.48z" style="fill: rgb(18, 18, 18);" vector-effect="non-scaling-stroke"/></g></svg>