<svg version="1.2" xmlns="http://www.w3.org/2000/svg" xmlns:xlink="http://www.w3.org/1999/xlink" overflow="visible" preserveAspectRatio="none" viewBox="0 0 24 24" width="46" height="42"><g><path xmlns:default="http://www.w3.org/2000/svg" id="plus" d="M19.33,11c0-0.55-0.45-1-1-1H14V5.67c0-0.55-0.45-1-1-1h-2c-0.55,0-1,0.45-1,1V10H5.67c-0.55,0-1,0.45-1,1v2  c0,0.55,0.45,1,1,1H10v4.33c0,0.55,0.45,1,1,1h2c0.55,0,1-0.45,1-1V14h4.33c0.55,0,1-0.45,1-1V11L19.33,11z" style="fill: rgb(18, 18, 18);" vector-effect="non-scaling-stroke"/></g></svg>