<svg version="1.2" xmlns="http://www.w3.org/2000/svg" xmlns:xlink="http://www.w3.org/1999/xlink" overflow="visible" preserveAspectRatio="none" viewBox="0 0 24 24" width="41" height="38"><g><path xmlns:default="http://www.w3.org/2000/svg" id="arrow-right" d="M19.66,12.02c0.01-0.35-0.13-0.7-0.39-0.94L12.5,4.31c-0.51-0.52-1.35-0.53-1.87-0.01  c0,0-0.01,0.01-0.01,0.01L9.84,5.09C9.32,5.6,9.32,6.43,9.82,6.95c0.01,0.01,0.01,0.01,0.02,0.02l3.04,3.06H5.56  c-0.34-0.01-0.66,0.13-0.88,0.39c-0.23,0.26-0.35,0.6-0.34,0.94v1.33c-0.01,0.34,0.11,0.68,0.34,0.94c0.22,0.26,0.54,0.4,0.88,0.39  h7.33l-3.06,3.01c-0.52,0.52-0.53,1.36-0.01,1.88c0,0,0.01,0.01,0.01,0.01l0.78,0.78c0.52,0.51,1.36,0.51,1.88,0l6.78-6.78  C19.51,12.68,19.65,12.36,19.66,12.02L19.66,12.02z" style="fill: rgb(18, 18, 18);" vector-effect="non-scaling-stroke"/></g></svg>